<svg width="67" height="64" viewBox="0 0 67 64" fill="none" xmlns="http://www.w3.org/2000/svg">
<path d="M28.177 50C28.619 50 29.0429 50.1756 29.3555 50.4882C29.668 50.8007 29.8436 51.2246 29.8436 51.6667C29.8436 52.1087 29.668 52.5326 29.3555 52.8452C29.0429 53.1577 28.619 53.3333 28.177 53.3333C27.7349 53.3333 27.311 53.1577 26.9984 52.8452C26.6859 52.5326 26.5103 52.1087 26.5103 51.6667C26.5103 51.2246 26.6859 50.8007 26.9984 50.4882C27.311 50.1756 27.7349 50 28.177 50ZM38.177 50C38.619 50 39.0429 50.1756 39.3555 50.4882C39.668 50.8007 39.8436 51.2246 39.8436 51.6667C39.8436 52.1087 39.668 52.5326 39.3555 52.8452C39.0429 53.1577 38.619 53.3333 38.177 53.3333C37.7349 53.3333 37.311 53.1577 36.9984 52.8452C36.6859 52.5326 36.5103 52.1087 36.5103 51.6667C36.5103 51.2246 36.6859 50.8007 36.9984 50.4882C37.311 50.1756 37.7349 50 38.177 50ZM26.5103 26.6667C27.3943 26.6667 28.2422 27.0179 28.8673 27.643C29.4924 28.2681 29.8436 29.1159 29.8436 30C29.8436 30.8841 29.4924 31.7319 28.8673 32.357C28.2422 32.9821 27.3943 33.3333 26.5103 33.3333C25.6262 33.3333 24.7784 32.9821 24.1533 32.357C23.5281 31.7319 23.177 30.8841 23.177 30C23.177 29.1159 23.5281 28.2681 24.1533 27.643C24.7784 27.0179 25.6262 26.6667 26.5103 26.6667ZM39.8436 26.6667C40.7277 26.6667 41.5755 27.0179 42.2006 27.643C42.8258 28.2681 43.177 29.1159 43.177 30C43.177 30.8841 42.8258 31.7319 42.2006 32.357C41.5755 32.9821 40.7277 33.3333 39.8436 33.3333C38.9596 33.3333 38.1117 32.9821 37.4866 32.357C36.8615 31.7319 36.5103 30.8841 36.5103 30C36.5103 29.1159 36.8615 28.2681 37.4866 27.643C38.1117 27.0179 38.9596 26.6667 39.8436 26.6667ZM53.177 50C53.177 57.3667 44.2103 63.3333 33.177 63.3333C22.1436 63.3333 13.177 57.3667 13.177 50C13.177 47 14.677 44.2333 17.177 42C14.677 38.6667 13.177 34.5 13.177 30L13.577 25.9333C11.777 26.4333 9.61029 26.4333 7.84362 25.9333C4.44362 25 -0.689711 21.1667 0.0769554 18.5C0.843622 15.8333 7.21029 15.3333 10.6103 16.3333C12.577 16.9 14.677 18.3333 15.9103 19.8667L17.8103 17.1667C15.8103 13.5 16.5103 3.33333 26.5103 0L26.2103 0.466667C25.277 1.93333 22.877 6.56667 25.4103 11.5667C27.8695 10.5344 30.5099 10.0027 33.177 10.0027C35.8441 10.0027 38.4844 10.5344 40.9436 11.5667C43.477 6.56667 41.077 1.93333 40.1436 0.466667L39.8436 0C49.8436 3.33333 50.5436 13.5 48.5436 17.1667L50.4436 19.8667C51.677 18.3333 53.777 16.9 55.7436 16.3333C59.1436 15.3333 65.5103 15.8333 66.277 18.5C67.0436 21.1667 61.9103 25 58.5103 25.9333C56.7436 26.4333 54.577 26.4333 52.777 25.9333L53.177 30C53.177 34.5 51.677 38.6667 49.177 42C51.677 44.2333 53.177 47 53.177 50ZM33.177 43.3333C25.8103 43.3333 19.8436 46.3333 19.8436 50C19.8436 53.6667 25.8103 56.6667 33.177 56.6667C40.5436 56.6667 46.5103 53.6667 46.5103 50C46.5103 46.3333 40.5436 43.3333 33.177 43.3333ZM33.177 36.6667C36.9103 36.6667 40.4103 37.3667 43.4103 38.5333C45.3436 36.2333 46.5103 33.3333 46.5103 30C46.5103 26.4638 45.1055 23.0724 42.605 20.5719C40.1046 18.0714 36.7132 16.6667 33.177 16.6667C29.6407 16.6667 26.2493 18.0714 23.7489 20.5719C21.2484 23.0724 19.8436 26.4638 19.8436 30C19.8436 33.3333 21.0103 36.2333 22.9436 38.5333C25.9436 37.3667 29.4436 36.6667 33.177 36.6667Z" fill="black"/>
</svg>
